# xmcd
#
# Track frame offsets:
#	150
#	13806
#	29006
#	43787
#	59714
#	75747
#	89509
#	112614
#	128312
#	146396
#	165130
#
# Disc length: 2430 seconds
#
# Revision: 0
# Processed by: cddbd v1.5.1PL2 Copyright (c) Steve Scherf et al.
# Submitted via: EasyCDDAExtractor 4.6.9.1
#
DISCID=83097c0b
DTITLE=Danielle Peck
DYEAR=2006
DGENRE=Country
TTITLE0=Findin' A Good Man
TTITLE1=Isn't That Everything
TTITLE2=Kiss You On The Mouth
TTITLE3=Fallin' Apart
TTITLE4=I Don't
TTITLE5=Sucks To Be You
TTITLE6=Honky-Tonk Time
TTITLE7=Thirsty Again
TTITLE8=Only The Lonely Talkin'
TTITLE9=A Woman Does Too
TTITLE10=Someobdy For You
EXTD=
EXTT0=
EXTT1=
EXTT2=
EXTT3=
EXTT4=
EXTT5=
EXTT6=
EXTT7=
EXTT8=
EXTT9=
EXTT10=
PLAYORDER=
